<?xml version="1.0" encoding="UTF-8" standalone="no"?>
<svg
   xmlns:dc="http://purl.org/dc/elements/1.1/"
   xmlns:cc="http://creativecommons.org/ns#"
   xmlns:rdf="http://www.w3.org/1999/02/22-rdf-syntax-ns#"
   xmlns:svg="http://www.w3.org/2000/svg"
   xmlns="http://www.w3.org/2000/svg"
   xmlns:sodipodi="http://sodipodi.sourceforge.net/DTD/sodipodi-0.dtd"
   xmlns:inkscape="http://www.inkscape.org/namespaces/inkscape"
   version="1.1"
   id="logo"
   x="0px"
   y="0px"
   viewBox="0 0 488 488"
   xml:space="preserve"
   sodipodi:docname="avenepool-text.svg"
   width="488"
   height="488"
   inkscape:version="0.92.3 (2405546, 2018-03-11)"
   inkscape:export-filename="G:\@programs\InkscapePortable\Data\Export\bitmap.png"
   inkscape:export-xdpi="100.72"
   inkscape:export-ydpi="100.72"><metadata
   id="metadata130"><rdf:RDF><cc:Work
       rdf:about=""><dc:format>image/svg+xml</dc:format><dc:type
         rdf:resource="http://purl.org/dc/dcmitype/StillImage" /><dc:title></dc:title></cc:Work></rdf:RDF></metadata><defs
   id="defs128" /><sodipodi:namedview
   pagecolor="#ffffff"
   bordercolor="#666666"
   borderopacity="1"
   objecttolerance="10"
   gridtolerance="10"
   guidetolerance="10"
   inkscape:pageopacity="0"
   inkscape:pageshadow="2"
   inkscape:window-width="2560"
   inkscape:window-height="1361"
   id="namedview126"
   showgrid="false"
   fit-margin-top="0"
   fit-margin-left="0"
   fit-margin-right="0"
   fit-margin-bottom="0"
   inkscape:zoom="1.2056171"
   inkscape:cx="278.31165"
   inkscape:cy="302.29588"
   inkscape:window-x="-9"
   inkscape:window-y="-9"
   inkscape:window-maximized="1"
   inkscape:current-layer="logo"><inkscape:grid
     type="xygrid"
     id="grid136"
     originx="0"
     originy="-16" /></sodipodi:namedview>
<g
   id="g123"
   transform="matrix(0.75,0,0,0.75,61,12.617371)">
	<g
   id="g121"
   style="fill:#0133ad">
		<path
   d="m 305.4,244 c 0,-33.9 -27.6,-61.4 -61.4,-61.4 -33.8,0 -61.4,27.5 -61.4,61.4 0,33.9 27.6,61.4 61.4,61.4 33.8,0 61.4,-27.5 61.4,-61.4 z M 244,281.4 c -20.6,0 -37.4,-16.8 -37.4,-37.4 0,-20.6 16.8,-37.4 37.4,-37.4 20.6,0 37.4,16.8 37.4,37.4 0,20.6 -16.8,37.4 -37.4,37.4 z"
   id="path71"
   inkscape:connector-curvature="0" />
		<path
   d="m 155.1,232 c -6.6,0 -12,5.4 -12,12 0,6.6 5.4,12 12,12 6.6,0 12,-5.4 12,-12 0,-6.6 -5.4,-12 -12,-12 z"
   id="path73"
   inkscape:connector-curvature="0" />
		<path
   d="m 103.8,244 c 0,6.6 5.4,12 12,12 6.6,0 12,-5.4 12,-12 0,-6.6 -5.4,-12 -12,-12 -6.6,0 -12,5.4 -12,12 z"
   id="path75"
   inkscape:connector-curvature="0" />
		<path
   d="M 88.5,244 C 88.5,219.6 68.6,199.7 44.2,199.7 19.8,199.7 0,219.6 0,244 c 0,24.4 19.9,44.3 44.3,44.3 24.4,0 44.2,-19.9 44.2,-44.3 z M 44.3,264.3 C 33.1,264.3 24,255.2 24,244 c 0,-11.2 9.1,-20.3 20.3,-20.3 11.2,0 20.3,9.1 20.3,20.3 0,11.2 -9.2,20.3 -20.3,20.3 z"
   id="path77"
   inkscape:connector-curvature="0" />
		<circle
   cx="372.20001"
   cy="244"
   r="12"
   id="circle79" />
		<path
   d="m 332.9,256 c 6.6,0 12,-5.4 12,-12 0,-6.6 -5.4,-12 -12,-12 -6.6,0 -12,5.4 -12,12 0,6.6 5.4,12 12,12 z"
   id="path81"
   inkscape:connector-curvature="0" />
		<path
   d="m 443.7,199.7 c -24.4,0 -44.3,19.9 -44.3,44.3 0,24.4 19.9,44.3 44.3,44.3 24.4,0 44.3,-19.9 44.3,-44.3 0,-24.4 -19.9,-44.3 -44.3,-44.3 z m 0,64.6 c -11.2,0 -20.3,-9.1 -20.3,-20.3 0,-11.2 9.1,-20.3 20.3,-20.3 11.2,0 20.3,9.1 20.3,20.3 0,11.2 -9.1,20.3 -20.3,20.3 z"
   id="path83"
   inkscape:connector-curvature="0" />
		<path
   d="m 244,320.9 c -6.6,0 -12,5.4 -12,12 0,6.6 5.4,12 12,12 6.6,0 12,-5.4 12,-12 0,-6.6 -5.4,-12 -12,-12 z"
   id="path85"
   inkscape:connector-curvature="0" />
		<path
   d="m 244,360.2 c -6.6,0 -12,5.4 -12,12 0,6.6 5.4,12 12,12 6.6,0 12,-5.4 12,-12 0,-6.6 -5.4,-12 -12,-12 z"
   id="path87"
   inkscape:connector-curvature="0" />
		<path
   d="m 244,399.5 c -24.4,0 -44.3,19.9 -44.3,44.3 0,24.4 19.9,44.2 44.3,44.2 24.4,0 44.3,-19.9 44.3,-44.3 0,-24.4 -19.9,-44.2 -44.3,-44.2 z m 0,64.5 c -11.2,0 -20.3,-9.1 -20.3,-20.3 0,-11.2 9.1,-20.3 20.3,-20.3 11.2,0 20.3,9.1 20.3,20.3 0,11.2 -9.1,20.3 -20.3,20.3 z"
   id="path89"
   inkscape:connector-curvature="0" />
		<path
   d="m 244,167.1 c 6.6,0 12,-5.4 12,-12 0,-6.6 -5.4,-12 -12,-12 -6.6,0 -12,5.4 -12,12 0,6.6 5.4,12 12,12 z"
   id="path91"
   inkscape:connector-curvature="0" />
		<circle
   cx="244"
   cy="115.8"
   r="12"
   id="circle93" />
		<path
   d="m 244,88.5 c 24.4,0 44.3,-19.9 44.3,-44.3 C 288.3,19.8 268.4,0 244,0 c -24.4,0 -44.3,19.9 -44.3,44.3 0,24.4 19.9,44.2 44.3,44.2 z M 244,24 c 11.2,0 20.3,9.1 20.3,20.3 0,11.2 -9.1,20.3 -20.3,20.3 -11.2,0 -20.3,-9.1 -20.3,-20.3 0,-11.2 9.1,-20.3 20.3,-20.3 z"
   id="path95"
   inkscape:connector-curvature="0" />
		<path
   d="m 172.7,298.4 c -4.7,4.7 -4.7,12.3 0,17 4.7,4.7 12.3,4.7 17,0 4.7,-4.7 4.7,-12.3 0,-17 -4.8,-4.7 -12.4,-4.7 -17,0 z"
   id="path97"
   inkscape:connector-curvature="0" />
		<circle
   cx="153.39999"
   cy="334.60001"
   r="12"
   id="circle99" />
		<path
   d="m 71.5,353.9 c -17.3,17.3 -17.3,45.3 0,62.6 17.3,17.3 45.3,17.3 62.6,0 17.3,-17.3 17.3,-45.3 0,-62.6 -17.3,-17.2 -45.4,-17.2 -62.6,0 z m 45.6,45.7 c -7.9,7.9 -20.7,7.9 -28.6,0 -7.9,-7.9 -7.9,-20.7 0,-28.6 7.9,-7.9 20.7,-7.9 28.6,0 7.9,7.8 7.9,20.7 0,28.6 z"
   id="path101"
   inkscape:connector-curvature="0" />
		<circle
   cx="334.60001"
   cy="153.39999"
   r="12"
   id="circle103" />
		<circle
   cx="306.89999"
   cy="181.10001"
   r="12"
   id="circle105" />
		<path
   d="m 416.5,134.1 c 17.3,-17.3 17.3,-45.3 0,-62.6 -17.3,-17.3 -45.3,-17.3 -62.6,0 -17.3,17.3 -17.3,45.3 0,62.6 17.3,17.3 45.4,17.2 62.6,0 z M 370.9,88.4 c 7.9,-7.9 20.7,-7.9 28.6,0 7.9,7.9 7.9,20.7 0,28.6 -7.9,7.9 -20.7,7.9 -28.6,0 -7.9,-7.8 -7.9,-20.7 0,-28.6 z"
   id="path107"
   inkscape:connector-curvature="0" />
		<circle
   cx="334.60001"
   cy="334.60001"
   r="12"
   id="circle109" />
		<path
   d="m 298.4,298.4 c -4.7,4.7 -4.7,12.3 0,17 4.7,4.7 12.3,4.7 17,0 4.7,-4.7 4.7,-12.3 0,-17 -4.7,-4.7 -12.3,-4.7 -17,0 z"
   id="path111"
   inkscape:connector-curvature="0" />
		<path
   d="m 353.9,353.9 c -17.3,17.3 -17.3,45.3 0,62.6 17.3,17.3 45.3,17.3 62.6,0 17.3,-17.3 17.3,-45.3 0,-62.6 -17.2,-17.2 -45.3,-17.2 -62.6,0 z m 45.7,45.7 c -7.9,7.9 -20.7,7.9 -28.6,0 -7.9,-7.9 -7.9,-20.7 0,-28.6 7.9,-7.9 20.7,-7.9 28.6,0 7.9,7.8 7.9,20.7 0,28.6 z"
   id="path113"
   inkscape:connector-curvature="0" />
		<circle
   cx="181.10001"
   cy="181.10001"
   r="12"
   id="circle115" />
		<circle
   cx="153.39999"
   cy="153.39999"
   r="12"
   id="circle117" />
		<path
   d="m 134.1,134.1 c 17.3,-17.3 17.3,-45.3 0,-62.6 -17.3,-17.3 -45.3,-17.3 -62.6,0 -17.3,17.3 -17.3,45.3 0,62.6 17.2,17.2 45.3,17.2 62.6,0 z M 88.4,88.4 c 7.9,-7.9 20.7,-7.9 28.6,0 7.9,7.9 7.9,20.7 0,28.6 -7.9,7.9 -20.7,7.9 -28.6,0 -7.9,-7.8 -7.9,-20.7 0,-28.6 z"
   id="path119"
   inkscape:connector-curvature="0" />
	</g>
</g>
<text
   xml:space="preserve"
   style="font-style:normal;font-variant:normal;font-weight:bold;font-stretch:normal;font-size:96px;line-height:1.25;font-family:Verdana;-inkscape-font-specification:'Verdana Bold';letter-spacing:0px;word-spacing:0px;fill:#000000;fill-opacity:1;stroke:none"
   x="66.995705"
   y="476"
   id="text134"><tspan
     sodipodi:role="line"
     id="tspan132"
     x="66.995705"
     y="476">AVENE</tspan></text>

<path
   style="fill:#0133ad;fill-opacity:1;stroke-width:0.59087002"
   d="m 68.872236,475.20726 c 0.0022,-0.25242 5.657368,-15.74771 12.56695,-34.43398 l 12.562876,-33.97503 h 10.271428 10.27143 l 12.31184,33.34126 c 6.77151,18.33768 12.46788,33.8329 12.6586,34.43381 0.32847,1.03493 -0.12831,1.08394 -8.66023,0.92921 l -9.007,-0.16335 -2.31355,-6.94272 -2.31355,-6.94273 h -13.1961 -13.196099 l -2.313516,6.94273 -2.313517,6.94272 -8.666818,0.16351 c -4.766751,0.0899 -8.664985,-0.043 -8.662744,-0.29543 z m 43.720304,-26.37015 c 0,-1.31656 -7.93471,-23.82941 -8.48728,-24.08064 -0.49533,-0.2252 -8.647947,22.47616 -8.647947,24.08064 0,0.63497 1.760751,0.79922 8.567617,0.79922 6.80686,0 8.56761,-0.16425 8.56761,-0.79922 z"
   id="path3925"
   inkscape:connector-curvature="0" /><path
   style="fill:#0133ad;fill-opacity:1;stroke-width:0.59087002"
   d="m 371.39363,441.06872 v -34.5659 h 24.81654 24.81654 v 6.49957 6.49957 h -16.24893 -16.24892 v 6.20414 6.20413 h 15.06718 15.06719 v 6.49957 6.49957 h -15.06719 -15.06718 v 8.86305 8.86305 h 16.24892 16.24893 v 6.49957 6.49958 h -24.81654 -24.81654 z"
   id="path4732"
   inkscape:connector-curvature="0" /><path
   style="fill:#bc1142;fill-opacity:1;stroke-width:0.59087002"
   d="m 69.451743,474.61682 c -0.0083,-0.5239 6.056619,-17.22385 17.011876,-46.84268 l 7.539903,-20.38502 h 10.276758 10.27676 l 12.30649,33.38416 c 6.76856,18.36129 12.30911,33.59069 12.31232,33.84311 0.003,0.25242 -3.89405,0.38537 -8.66059,0.29543 l -8.66643,-0.16351 -2.16657,-6.49957 -2.16657,-6.49957 H 104.02493 90.53417 l -2.166532,6.49957 -2.166533,6.49957 -8.371036,0.16394 c -4.604071,0.0902 -8.374317,-0.0428 -8.378326,-0.29543 z m 43.140797,-26.12939 c 0,-1.12356 -5.37664,-16.95944 -7.31892,-21.55649 -0.56938,-1.34762 -1.19127,-2.09074 -1.48344,-1.77261 -1.1225,1.22223 -8.332867,21.48078 -8.332867,23.41236 0,0.97795 0.705046,1.06564 8.567617,1.06564 8.09207,0 8.56761,-0.0638 8.56761,-1.1489 z"
   id="path4734"
   inkscape:connector-curvature="0" /><path
   style="fill:#bc1142;fill-opacity:1;stroke-width:0.59087002"
   d="m 156.04378,441.8073 c -6.77278,-18.60502 -12.43526,-34.15967 -12.58329,-34.56589 -0.20793,-0.57063 1.80839,-0.73859 8.86664,-0.73859 h 9.13578 l 8.14512,23.78252 c 4.47982,13.08038 8.33529,24.14576 8.56771,24.58972 0.4533,0.86586 1.29536,-1.41256 11.27164,-30.49842 l 6.13061,-17.87382 h 8.73123 c 4.80218,0 8.73123,0.22065 8.73123,0.49033 0,0.38584 -22.8815,63.44215 -24.53299,67.60744 -0.36761,0.92715 -1.43007,1.03403 -10.27976,1.03403 h -9.86977 z"
   id="path5279"
   inkscape:connector-curvature="0" /><path
   style="fill:#bc1142;fill-opacity:1;stroke-width:0.59087002"
   d="m 224.26698,441.06872 v -34.5659 h 24.81655 24.81654 v 6.49957 6.49957 h -16.24893 -16.24892 v 6.20414 6.20413 h 15.06718 15.06719 v 6.49957 6.49957 H 256.4694 241.40222 v 8.86305 8.86305 h 16.24892 16.24893 v 6.49957 6.49958 h -24.81654 -24.81655 z"
   id="path5281"
   inkscape:connector-curvature="0" /><path
   style="fill:#bc1142;fill-opacity:1;stroke-width:0.59087002"
   d="m 289.85356,441.06872 v -34.5659 l 10.48794,0.001 10.48795,10e-4 12.7037,19.94073 12.70371,19.94074 0.15558,-19.94187 0.15557,-19.94186 h 7.96889 7.96889 v 34.5659 34.5659 l -8.4199,-0.0109 -8.4199,-0.0109 -14.77175,-23.94621 -14.77175,-23.9462 -0.15435,23.9571 -0.15435,23.9571 h -7.97011 -7.97012 z"
   id="path5283"
   inkscape:connector-curvature="0" /><path
   style="fill:#bc1142;fill-opacity:1;stroke-width:0.59087002"
   d="m 371.39363,441.06872 v -34.5659 h 24.81654 24.81654 v 6.49957 6.49957 h -16.24893 -16.24892 v 6.20414 6.20413 h 15.06718 15.06719 v 6.49957 6.49957 h -15.06719 -15.06718 v 8.86305 8.86305 h 16.24892 16.24893 v 6.49957 6.49958 h -24.81654 -24.81654 z"
   id="path5285"
   inkscape:connector-curvature="0" /></svg>