<?xml version="1.0" encoding="UTF-8" standalone="no"?>
<svg
   xmlns:dc="http://purl.org/dc/elements/1.1/"
   xmlns:cc="http://creativecommons.org/ns#"
   xmlns:rdf="http://www.w3.org/1999/02/22-rdf-syntax-ns#"
   xmlns:svg="http://www.w3.org/2000/svg"
   xmlns="http://www.w3.org/2000/svg"
   xmlns:sodipodi="http://sodipodi.sourceforge.net/DTD/sodipodi-0.dtd"
   xmlns:inkscape="http://www.inkscape.org/namespaces/inkscape"
   width="512"
   height="512"
   viewBox="0 0 135.46667 135.46667"
   version="1.1"
   id="svg8"
   inkscape:version="1.0.2-2 (e86c870879, 2021-01-15)"
   sodipodi:docname="avenepool.svg"
   inkscape:export-filename="C:\temp\avenepool.png"
   inkscape:export-xdpi="96"
   inkscape:export-ydpi="96">
  <defs
     id="defs2" />
  <sodipodi:namedview
     id="base"
     pagecolor="#ffffff"
     bordercolor="#666666"
     borderopacity="1.0"
     inkscape:pageopacity="0.0"
     inkscape:pageshadow="2"
     inkscape:zoom="2.8"
     inkscape:cx="201.52727"
     inkscape:cy="204.77719"
     inkscape:document-units="mm"
     inkscape:current-layer="layer2"
     inkscape:document-rotation="0"
     showgrid="false"
     units="px"
     scale-x="1"
     showborder="true"
     borderlayer="false"
     inkscape:showpageshadow="false"
     inkscape:window-width="2560"
     inkscape:window-height="1361"
     inkscape:window-x="-9"
     inkscape:window-y="-9"
     inkscape:window-maximized="1"
     showguides="false" />
  <metadata
     id="metadata5">
    <rdf:RDF>
      <cc:Work
         rdf:about="">
        <dc:format>image/svg+xml</dc:format>
        <dc:type
           rdf:resource="http://purl.org/dc/dcmitype/StillImage" />
        <dc:title />
      </cc:Work>
    </rdf:RDF>
  </metadata>
  <g
     inkscape:label="bg"
     inkscape:groupmode="layer"
     id="layer1"
     style="display:inline">
    <rect
       style="fill:#101d2d;fill-opacity:1;fill-rule:evenodd;stroke:#000000;stroke-width:0;stroke-miterlimit:4;stroke-dasharray:none"
       id="rect1415"
       width="135.46666"
       height="135.46666"
       x="5.00976e-07"
       y="5.00976e-07"
       inkscape:label="rect" />
  </g>
  <g
     inkscape:groupmode="layer"
     id="layer2"
     inkscape:label="fg"
     style="display:inline">
    <path
       style="display:inline;fill:#ffffff;fill-rule:evenodd;stroke:#000000;stroke-width:0"
       d="m 78.649534,306.91472 c -0.04108,-0.19098 -0.153286,-0.54611 -0.24934,-0.78918 -0.09605,-0.24307 -0.378696,-1.23744 -0.628094,-2.20971 -0.249398,-0.97227 -0.648438,-2.3928 -0.886757,-3.15673 -0.238319,-0.76392 -0.738663,-2.54067 -1.111877,-3.94831 -0.373212,-1.40764 -0.706085,-2.58687 -0.739715,-2.6205 -0.0846,-0.0846 -21.048358,0.51423 -21.137935,0.60381 -0.03976,0.0398 -0.74636,2.72563 -1.570229,5.9686 -0.823869,3.24298 -1.529241,5.92761 -1.567492,5.96586 -0.03825,0.0383 -2.157915,0.003 -4.710365,-0.0779 -2.552451,-0.0811 -10.124054,-0.31622 -16.825785,-0.52246 -6.701731,-0.20624 -12.928424,-0.41016 -13.837096,-0.45316 l -1.652131,-0.0782 0.293533,-1.66125 c 0.317034,-1.79425 0.719782,-3.68399 0.999915,-4.69171 0.09653,-0.34724 0.769086,-3.35875 1.494572,-6.69226 0.725486,-3.3335 2.832428,-12.79421 4.682095,-21.0238 1.849666,-8.22958 5.061087,-22.63963 7.136492,-32.02233 2.075406,-9.3827 4.338662,-19.52526 5.029463,-22.53903 0.690799,-3.01377 1.287031,-5.67845 1.324963,-5.92152 0.108681,-0.69646 0.58238,-2.81328 0.643151,-2.87405 0.05248,-0.0525 2.538299,-0.11537 15.98213,-0.40432 3.298779,-0.0709 8.270624,-0.18792 11.048543,-0.26005 2.77792,-0.0721 9.795323,-0.216 15.59423,-0.3197 5.798907,-0.1037 11.941563,-0.22419 13.650344,-0.26775 l 3.106877,-0.0792 0.203131,0.87142 c 0.111723,0.47928 0.264647,1.29757 0.339835,1.81843 0.07519,0.52086 0.643262,3.53238 1.262387,6.69226 2.268521,11.57806 7.387581,38.22032 10.226181,53.22241 3.76463,19.89616 4.28951,22.65265 5.10935,26.83218 0.37463,1.90982 0.71005,3.64286 0.74539,3.85121 0.0353,0.20834 0.31192,1.65728 0.61462,3.21986 0.53818,2.77816 0.54465,2.84166 0.29223,2.8685 -0.14198,0.0151 -3.26966,0.11632 -6.9504,0.22494 -3.68074,0.10862 -11.294769,0.33759 -16.920056,0.50882 -5.625287,0.17123 -10.38297,0.3115 -10.572629,0.31171 -0.274029,2.5e-4 -0.360171,-0.0709 -0.419531,-0.34687 z M 64.676216,277.38074 c 2.867055,-0.1928 5.266934,-0.38399 5.333065,-0.42486 0.09746,-0.0602 -2.295828,-8.76459 -4.443486,-16.16094 -0.211736,-0.7292 -0.579288,-2.0645 -0.81678,-2.96732 -0.557402,-2.11895 -0.546808,-2.09321 -0.701504,-1.70463 -0.06912,0.17362 -0.655678,2.33282 -1.303459,4.79822 -1.449006,5.51478 -4.334571,16.39157 -4.435015,16.71725 -0.06733,0.21832 -0.02033,0.23276 0.540298,0.16598 0.337728,-0.0402 2.959824,-0.2309 5.826881,-0.4237 z"
       id="path842"
       transform="scale(0.26458333)" />
    <path
       style="display:inline;fill:#ffffff;fill-opacity:1;fill-rule:evenodd;stroke:#000000;stroke-width:0"
       d="m 134.47601,306.22955 c -3.27877,-10.41807 -28.94806,-92.98641 -28.91793,-93.01795 0.0364,-0.0381 7.29616,-0.48155 36.76801,-2.24601 4.38983,-0.26281 8.00716,-0.45191 8.0385,-0.42022 0.0314,0.0317 1.65577,10.71157 3.60983,23.73307 1.95405,13.0215 3.57185,23.73227 3.59511,23.80172 0.0233,0.0695 0.0739,0.041 0.11249,-0.0631 0.0386,-0.10417 2.40584,-10.36037 5.2605,-22.79156 2.85466,-12.43119 5.21711,-22.69253 5.2499,-22.80297 0.0527,-0.17763 0.66788,-0.21053 5.32924,-0.28506 2.8983,-0.0463 11.82311,-0.20209 19.83291,-0.34611 8.00981,-0.14402 14.59409,-0.23105 14.63174,-0.19341 0.0376,0.0376 -6.53806,20.99505 -14.61269,46.572 -8.07463,25.57694 -14.81732,46.9439 -14.98375,47.48212 l -0.30261,0.97859 -7.03473,0.001 c -3.8691,6.3e-4 -9.42121,0.0844 -12.33802,0.1861 -2.91682,0.10172 -8.76939,0.2981 -13.00572,0.43641 -4.23632,0.1383 -8.39549,0.28603 -9.24259,0.32828 l -1.54019,0.0768 -0.45,-1.42983 z"
       id="path848"
       transform="scale(0.26458333)" />
    <path
       style="display:inline;fill:#ffffff;fill-opacity:1;fill-rule:evenodd;stroke:#000000;stroke-width:0"
       d="m 218.52781,305.2937 c -0.0832,-0.75783 -0.23756,-4.04846 -0.34297,-7.31252 -0.1054,-3.26405 -0.92441,-23.29348 -1.82002,-44.50984 -0.89562,-21.21636 -1.66248,-39.57347 -1.70415,-40.79358 l -0.0758,-2.21838 3.69605,-0.15113 c 2.03283,-0.0831 4.0938,-0.20364 4.57994,-0.26782 1.31824,-0.17402 5.3813,-0.57386 27.02158,-2.65914 17.0211,-1.64017 23.80218,-2.2849 29.23129,-2.77926 0.65976,-0.0601 1.49316,-0.14812 1.85202,-0.19564 l 0.65246,-0.0864 0.1512,0.48986 c 0.0831,0.26942 0.28236,2.19449 0.44268,4.27793 0.16033,2.08344 0.35136,4.52675 0.42453,5.42957 0.0732,0.90282 0.223,2.91997 0.33297,4.48255 0.10996,1.56258 0.28447,3.72178 0.38779,4.79823 0.10332,1.07644 0.21652,3.13003 0.25155,4.56352 l 0.0637,2.60636 -0.98519,0.0789 c -0.54185,0.0434 -7.80239,0.42234 -16.13453,0.84205 -8.33214,0.41972 -15.17096,0.78473 -15.19737,0.81115 -0.0586,0.0586 1.20474,8.14943 1.28505,8.22975 0.0581,0.0581 12.71242,-1.00035 21.29612,-1.78132 5.41111,-0.49232 6.96519,-0.59418 7.16662,-0.46969 0.15262,0.0943 2.28007,18.92343 2.29595,20.32043 0.006,0.53056 -0.0434,0.81047 -0.14952,0.84605 -0.2244,0.0753 -3.6312,0.40537 -6.53513,0.63324 -1.35424,0.10626 -3.99642,0.3627 -5.87151,0.56985 -1.8751,0.20716 -5.99159,0.63431 -9.14777,0.94924 -3.15617,0.31492 -5.75718,0.59127 -5.78002,0.61411 -0.0448,0.0448 1.46468,9.95282 1.52556,10.0137 0.0202,0.0202 8.98072,-1.24134 19.91234,-2.80335 10.93161,-1.562 19.96478,-2.84001 20.07372,-2.84001 0.17915,0 0.17755,0.1812 -0.0168,1.89851 -0.11814,1.04418 -0.28067,3.01871 -0.36118,4.38785 -0.0805,1.36914 -0.25473,3.76781 -0.38717,5.33039 -0.13244,1.56258 -0.33069,4.20476 -0.44054,5.87151 -0.10985,1.66676 -0.44939,6.41132 -0.75453,10.54347 -0.30513,4.13216 -0.59315,8.29083 -0.64005,9.24151 l -0.0853,1.72849 -0.58496,-0.0648 c -0.32173,-0.0357 -13.59699,0.0813 -29.50058,0.25996 -15.90359,0.17864 -32.75439,0.36255 -37.44622,0.40869 l -8.5306,0.0839 z"
       id="path850"
       transform="scale(0.26458333)" />
    <path
       style="display:inline;fill:#ffffff;fill-opacity:1;fill-rule:evenodd;stroke:#000000;stroke-width:0"
       d="m 347.55762,289.17421 c -4.73926,-9.74024 -8.65912,-17.75449 -8.7108,-17.80944 -0.1291,-0.13728 -0.19479,2.0062 -0.59556,19.43556 l -0.3488,15.16877 -10.67496,0.0765 c -5.87122,0.0421 -12.96032,0.10803 -15.75356,0.14661 l -5.0786,0.0702 -0.0562,-0.28937 c -0.0721,-0.37152 -3.64807,-93.54837 -3.59202,-93.59563 0.0231,-0.0195 6.94583,-0.16223 15.38376,-0.31716 8.43793,-0.15492 16.83817,-0.31888 18.6672,-0.36435 2.16587,-0.0539 3.36047,-0.0386 3.42578,0.0436 0.0552,0.0695 5.79524,9.30287 12.75575,20.51872 6.96052,11.21585 12.72197,20.463 12.80322,20.54921 0.11362,0.12055 1.01235,-4.59905 3.89147,-20.43572 2.05905,-11.32585 3.77041,-20.61914 3.80303,-20.65176 0.0326,-0.0326 5.05128,-0.10916 11.15259,-0.1701 6.10132,-0.0609 14.29175,-0.14735 18.20097,-0.192 l 7.10766,-0.0812 -0.0669,0.29455 c -0.0368,0.162 -3.96696,21.54563 -8.73366,47.51918 -4.7667,25.97355 -8.6737,47.23229 -8.68223,47.24165 -0.009,0.009 -8.11251,0.0887 -18.00884,0.17642 -9.89634,0.0877 -18.05615,0.20799 -18.1329,0.26738 -0.0951,0.0736 -2.88727,-5.53918 -8.7564,-17.60155 z"
       id="path852"
       transform="scale(0.26458333)" />
    <path
       style="display:inline;fill:#ffffff;fill-opacity:1;fill-rule:evenodd;stroke:#000000;stroke-width:0"
       d="m 419.11812,305.29369 c -0.0447,-0.75782 -0.16893,-3.96322 -0.27608,-7.1231 -0.10715,-3.15989 -0.90555,-22.45064 -1.77422,-42.86835 -1.41628,-33.28896 -1.87423,-44.7707 -1.78808,-44.83115 0.0154,-0.0108 1.67589,-0.0861 3.68988,-0.16722 2.014,-0.0811 4.31525,-0.22976 5.1139,-0.33028 1.0729,-0.13504 44.82047,-4.37365 49.49748,-4.79571 3.76653,-0.33989 6.42197,-0.59594 7.26047,-0.70008 0.55558,-0.069 1.10328,-0.12538 1.2171,-0.12529 0.35911,2.8e-4 0.59528,1.3784 0.80064,4.67212 0.10609,1.70147 0.24962,3.57657 0.31894,4.16687 0.0693,0.59031 0.21378,2.46541 0.32101,4.16688 0.10724,1.70148 0.30772,4.34366 0.44552,5.87152 0.1378,1.52785 0.27803,3.89415 0.31163,5.25843 l 0.0611,2.48052 -0.98034,0.0785 c -0.5392,0.0432 -7.79728,0.42165 -16.12908,0.84101 -8.3318,0.41935 -15.17279,0.78653 -15.20221,0.81594 -0.0668,0.0667 1.15488,7.98891 1.25799,8.158 0.0718,0.11775 9.60229,-0.64824 21.3274,-1.71414 5.3812,-0.48919 6.96616,-0.59372 7.16007,-0.4722 0.13684,0.0858 2.2619,18.98961 2.2918,20.38722 0.0103,0.48067 -0.0379,0.74844 -0.14087,0.78291 -0.2215,0.0742 -3.629,0.40444 -6.53308,0.63325 -1.35424,0.1067 -3.99642,0.3619 -5.87151,0.56711 -1.8751,0.20522 -5.99172,0.63214 -9.14804,0.94872 -3.15632,0.31658 -5.75891,0.59574 -5.78352,0.62036 -0.0528,0.0528 1.44538,9.92597 1.51701,9.9976 0.0269,0.0268 9.03944,-1.23571 20.02798,-2.80568 10.98853,-1.56998 20.01376,-2.8199 20.05605,-2.77761 0.0423,0.0423 -0.0163,0.94379 -0.1301,2.00331 -0.11384,1.05953 -0.26858,2.92078 -0.34385,4.13612 -0.0753,1.21534 -0.27521,3.94275 -0.44431,6.06092 -0.16911,2.11816 -0.39343,5.1865 -0.49851,6.81853 -0.10507,1.63202 -0.41745,5.95043 -0.69417,9.59645 -0.27671,3.64602 -0.546,7.45231 -0.5984,8.45842 l -0.0953,1.8293 -0.94702,-0.0353 c -0.52086,-0.0195 -13.70335,0.10822 -29.29442,0.28371 -15.59107,0.17548 -32.3016,0.35758 -37.13449,0.40466 l -8.78708,0.0856 z"
       id="path854"
       transform="scale(0.26458333)" />
  </g>
</svg>
