<?xml version="1.0" encoding="UTF-8" standalone="no"?>
<svg
   xmlns:dc="http://purl.org/dc/elements/1.1/"
   xmlns:cc="http://creativecommons.org/ns#"
   xmlns:rdf="http://www.w3.org/1999/02/22-rdf-syntax-ns#"
   xmlns:svg="http://www.w3.org/2000/svg"
   xmlns="http://www.w3.org/2000/svg"
   xmlns:sodipodi="http://sodipodi.sourceforge.net/DTD/sodipodi-0.dtd"
   xmlns:inkscape="http://www.inkscape.org/namespaces/inkscape"
   version="1.1"
   id="logo"
   x="0px"
   y="0px"
   viewBox="0 0 488 488"
   xml:space="preserve"
   sodipodi:docname="avenepooltext.svg"
   width="488"
   height="488"
   inkscape:version="1.0.2-2 (e86c870879, 2021-01-15)"
   inkscape:export-filename="G:\temp\bitmap.png"
   inkscape:export-xdpi="100.72131"
   inkscape:export-ydpi="100.72131"><metadata
   id="metadata130"><rdf:RDF><cc:Work
       rdf:about=""><dc:format>image/svg+xml</dc:format><dc:type
         rdf:resource="http://purl.org/dc/dcmitype/StillImage" /><dc:title /></cc:Work></rdf:RDF></metadata><defs
   id="defs128" /><sodipodi:namedview
   pagecolor="#ffffff"
   bordercolor="#666666"
   borderopacity="1"
   objecttolerance="10"
   gridtolerance="10"
   guidetolerance="10"
   inkscape:pageopacity="0"
   inkscape:pageshadow="2"
   inkscape:window-width="2560"
   inkscape:window-height="1361"
   id="namedview126"
   showgrid="false"
   fit-margin-top="0"
   fit-margin-left="0"
   fit-margin-right="0"
   fit-margin-bottom="0"
   inkscape:zoom="0.85250003"
   inkscape:cx="548.55413"
   inkscape:cy="444.37928"
   inkscape:window-x="-9"
   inkscape:window-y="-9"
   inkscape:window-maximized="1"
   inkscape:current-layer="logo"
   inkscape:document-rotation="0"><inkscape:grid
     type="xygrid"
     id="grid136"
     originx="0"
     originy="-16" /></sodipodi:namedview>
<g
   id="g123"
   transform="matrix(0.75,0,0,0.75,61,12.617371)">
	<g
   id="g121"
   style="fill:#0133ad">
		<path
   d="m 305.4,244 c 0,-33.9 -27.6,-61.4 -61.4,-61.4 -33.8,0 -61.4,27.5 -61.4,61.4 0,33.9 27.6,61.4 61.4,61.4 33.8,0 61.4,-27.5 61.4,-61.4 z M 244,281.4 c -20.6,0 -37.4,-16.8 -37.4,-37.4 0,-20.6 16.8,-37.4 37.4,-37.4 20.6,0 37.4,16.8 37.4,37.4 0,20.6 -16.8,37.4 -37.4,37.4 z"
   id="path71"
   inkscape:connector-curvature="0" />
		<path
   d="m 155.1,232 c -6.6,0 -12,5.4 -12,12 0,6.6 5.4,12 12,12 6.6,0 12,-5.4 12,-12 0,-6.6 -5.4,-12 -12,-12 z"
   id="path73"
   inkscape:connector-curvature="0" />
		<path
   d="m 103.8,244 c 0,6.6 5.4,12 12,12 6.6,0 12,-5.4 12,-12 0,-6.6 -5.4,-12 -12,-12 -6.6,0 -12,5.4 -12,12 z"
   id="path75"
   inkscape:connector-curvature="0" />
		<path
   d="M 88.5,244 C 88.5,219.6 68.6,199.7 44.2,199.7 19.8,199.7 0,219.6 0,244 c 0,24.4 19.9,44.3 44.3,44.3 24.4,0 44.2,-19.9 44.2,-44.3 z M 44.3,264.3 C 33.1,264.3 24,255.2 24,244 c 0,-11.2 9.1,-20.3 20.3,-20.3 11.2,0 20.3,9.1 20.3,20.3 0,11.2 -9.2,20.3 -20.3,20.3 z"
   id="path77"
   inkscape:connector-curvature="0" />
		<circle
   cx="372.20001"
   cy="244"
   r="12"
   id="circle79" />
		<path
   d="m 332.9,256 c 6.6,0 12,-5.4 12,-12 0,-6.6 -5.4,-12 -12,-12 -6.6,0 -12,5.4 -12,12 0,6.6 5.4,12 12,12 z"
   id="path81"
   inkscape:connector-curvature="0" />
		<path
   d="m 443.7,199.7 c -24.4,0 -44.3,19.9 -44.3,44.3 0,24.4 19.9,44.3 44.3,44.3 24.4,0 44.3,-19.9 44.3,-44.3 0,-24.4 -19.9,-44.3 -44.3,-44.3 z m 0,64.6 c -11.2,0 -20.3,-9.1 -20.3,-20.3 0,-11.2 9.1,-20.3 20.3,-20.3 11.2,0 20.3,9.1 20.3,20.3 0,11.2 -9.1,20.3 -20.3,20.3 z"
   id="path83"
   inkscape:connector-curvature="0" />
		<path
   d="m 244,320.9 c -6.6,0 -12,5.4 -12,12 0,6.6 5.4,12 12,12 6.6,0 12,-5.4 12,-12 0,-6.6 -5.4,-12 -12,-12 z"
   id="path85"
   inkscape:connector-curvature="0" />
		<path
   d="m 244,360.2 c -6.6,0 -12,5.4 -12,12 0,6.6 5.4,12 12,12 6.6,0 12,-5.4 12,-12 0,-6.6 -5.4,-12 -12,-12 z"
   id="path87"
   inkscape:connector-curvature="0" />
		<path
   d="m 244,399.5 c -24.4,0 -44.3,19.9 -44.3,44.3 0,24.4 19.9,44.2 44.3,44.2 24.4,0 44.3,-19.9 44.3,-44.3 0,-24.4 -19.9,-44.2 -44.3,-44.2 z m 0,64.5 c -11.2,0 -20.3,-9.1 -20.3,-20.3 0,-11.2 9.1,-20.3 20.3,-20.3 11.2,0 20.3,9.1 20.3,20.3 0,11.2 -9.1,20.3 -20.3,20.3 z"
   id="path89"
   inkscape:connector-curvature="0" />
		<path
   d="m 244,167.1 c 6.6,0 12,-5.4 12,-12 0,-6.6 -5.4,-12 -12,-12 -6.6,0 -12,5.4 -12,12 0,6.6 5.4,12 12,12 z"
   id="path91"
   inkscape:connector-curvature="0" />
		<circle
   cx="244"
   cy="115.8"
   r="12"
   id="circle93" />
		<path
   d="m 244,88.5 c 24.4,0 44.3,-19.9 44.3,-44.3 C 288.3,19.8 268.4,0 244,0 c -24.4,0 -44.3,19.9 -44.3,44.3 0,24.4 19.9,44.2 44.3,44.2 z M 244,24 c 11.2,0 20.3,9.1 20.3,20.3 0,11.2 -9.1,20.3 -20.3,20.3 -11.2,0 -20.3,-9.1 -20.3,-20.3 0,-11.2 9.1,-20.3 20.3,-20.3 z"
   id="path95"
   inkscape:connector-curvature="0" />
		<path
   d="m 172.7,298.4 c -4.7,4.7 -4.7,12.3 0,17 4.7,4.7 12.3,4.7 17,0 4.7,-4.7 4.7,-12.3 0,-17 -4.8,-4.7 -12.4,-4.7 -17,0 z"
   id="path97"
   inkscape:connector-curvature="0" />
		<circle
   cx="153.39999"
   cy="334.60001"
   r="12"
   id="circle99" />
		<path
   d="m 71.5,353.9 c -17.3,17.3 -17.3,45.3 0,62.6 17.3,17.3 45.3,17.3 62.6,0 17.3,-17.3 17.3,-45.3 0,-62.6 -17.3,-17.2 -45.4,-17.2 -62.6,0 z m 45.6,45.7 c -7.9,7.9 -20.7,7.9 -28.6,0 -7.9,-7.9 -7.9,-20.7 0,-28.6 7.9,-7.9 20.7,-7.9 28.6,0 7.9,7.8 7.9,20.7 0,28.6 z"
   id="path101"
   inkscape:connector-curvature="0" />
		<circle
   cx="334.60001"
   cy="153.39999"
   r="12"
   id="circle103" />
		<circle
   cx="306.89999"
   cy="181.10001"
   r="12"
   id="circle105" />
		<path
   d="m 416.5,134.1 c 17.3,-17.3 17.3,-45.3 0,-62.6 -17.3,-17.3 -45.3,-17.3 -62.6,0 -17.3,17.3 -17.3,45.3 0,62.6 17.3,17.3 45.4,17.2 62.6,0 z M 370.9,88.4 c 7.9,-7.9 20.7,-7.9 28.6,0 7.9,7.9 7.9,20.7 0,28.6 -7.9,7.9 -20.7,7.9 -28.6,0 -7.9,-7.8 -7.9,-20.7 0,-28.6 z"
   id="path107"
   inkscape:connector-curvature="0" />
		<circle
   cx="334.60001"
   cy="334.60001"
   r="12"
   id="circle109" />
		<path
   d="m 298.4,298.4 c -4.7,4.7 -4.7,12.3 0,17 4.7,4.7 12.3,4.7 17,0 4.7,-4.7 4.7,-12.3 0,-17 -4.7,-4.7 -12.3,-4.7 -17,0 z"
   id="path111"
   inkscape:connector-curvature="0" />
		<path
   d="m 353.9,353.9 c -17.3,17.3 -17.3,45.3 0,62.6 17.3,17.3 45.3,17.3 62.6,0 17.3,-17.3 17.3,-45.3 0,-62.6 -17.2,-17.2 -45.3,-17.2 -62.6,0 z m 45.7,45.7 c -7.9,7.9 -20.7,7.9 -28.6,0 -7.9,-7.9 -7.9,-20.7 0,-28.6 7.9,-7.9 20.7,-7.9 28.6,0 7.9,7.8 7.9,20.7 0,28.6 z"
   id="path113"
   inkscape:connector-curvature="0" />
		<circle
   cx="181.10001"
   cy="181.10001"
   r="12"
   id="circle115" />
		<circle
   cx="153.39999"
   cy="153.39999"
   r="12"
   id="circle117" />
		<path
   d="m 134.1,134.1 c 17.3,-17.3 17.3,-45.3 0,-62.6 -17.3,-17.3 -45.3,-17.3 -62.6,0 -17.3,17.3 -17.3,45.3 0,62.6 17.2,17.2 45.3,17.2 62.6,0 z M 88.4,88.4 c 7.9,-7.9 20.7,-7.9 28.6,0 7.9,7.9 7.9,20.7 0,28.6 -7.9,7.9 -20.7,7.9 -28.6,0 -7.9,-7.8 -7.9,-20.7 0,-28.6 z"
   id="path119"
   inkscape:connector-curvature="0" />
	</g>
</g>
<text
   xml:space="preserve"
   style="font-style:normal;font-variant:normal;font-weight:bold;font-stretch:normal;font-size:96px;line-height:1.25;font-family:Verdana;-inkscape-font-specification:'Verdana Bold';letter-spacing:0px;word-spacing:0px;fill:#000000;fill-opacity:1;stroke:none"
   x="66.995705"
   y="476"
   id="text134"><tspan
     sodipodi:role="line"
     id="tspan132"
     x="66.995705"
     y="476">AVENE</tspan></text>

<path
   style="fill:#0133ad;fill-opacity:1;stroke:#000000;stroke-width:0.146628;stroke-opacity:1"
   d="m 289.79429,441.13222 c 0,11.47494 0,22.94989 0,34.42483 5.20729,0 10.41457,0 15.62185,0 0.0244,-15.8436 0.0489,-31.68721 0.0736,-47.53081 0.99511,-0.72241 1.21475,0.85511 1.74244,1.41183 9.49983,15.37064 18.99956,30.74135 28.49921,46.11211 5.53529,0.002 11.07057,0.005 16.60586,0.007 0,-22.94921 0,-45.89843 0,-68.84765 -5.20728,0 -10.41457,0 -15.62185,0 -0.0245,13.1856 -0.049,26.3712 -0.0736,39.55679 -0.99023,0.72308 -1.22455,-0.84296 -1.76131,-1.3939 -8.08539,-12.69682 -16.17079,-25.39363 -24.2562,-38.09044 -6.94334,-0.0242 -13.88667,-0.0485 -20.83,-0.073 0,11.47456 0,22.94912 0,34.42368 z"
   id="path2039" /><path
   style="fill:#0133ad;fill-opacity:1;stroke:#000000;stroke-width:0.146628;stroke-opacity:1"
   d="m 224.25177,441.13308 c 0,11.47466 0,22.94931 0,34.42397 16.49771,0 32.99541,0 49.49311,0 0,-4.18099 0,-8.36197 0,-12.54296 -10.71708,0 -21.43417,0 -32.15125,0 -0.80997,-0.37637 -0.22072,-1.58512 -0.40007,-2.30623 0,-5.18084 0,-10.36168 0,-15.54252 0.37637,-0.80998 1.58512,-0.22072 2.30623,-0.40008 9.29968,0 18.59937,0 27.89905,0 0,-4.18098 0,-8.36197 0,-12.54295 -9.93507,0 -19.87014,0 -29.80521,0 -0.80997,-0.37638 -0.22072,-1.58513 -0.40007,-2.30624 0.0388,-3.46226 -0.0772,-6.95616 0.0576,-10.39878 0.55112,-0.58447 1.63831,-0.11393 2.39528,-0.26522 10.03282,0 20.06564,0 30.09846,0 0,-4.18099 0,-8.36198 0,-12.54296 -16.4977,0 -32.9954,0 -49.49311,0 0,11.47466 0,22.94931 0,34.42397 z"
   id="path2041" /><path
   style="fill:#0133ad;fill-opacity:1;stroke:#000000;stroke-width:0.146628;stroke-opacity:1"
   d="m 204.45218,406.71054 c -2.94467,5.7e-4 -5.88934,0.001 -8.83402,0.002 -5.61703,16.24716 -11.11821,32.53537 -16.85014,48.74164 -0.95456,0.49252 -0.93765,-0.85887 -1.23704,-1.41752 -5.49744,-15.71858 -10.83853,-31.49954 -16.30042,-47.22532 -5.93756,-0.16061 -11.9028,-0.0214 -17.85133,-0.0309 8.36015,22.92557 16.72012,45.85121 25.0799,68.77692 6.48464,0 12.96928,0 19.45392,0 8.35727,-22.95213 16.75012,-45.89153 25.09537,-68.84794 -2.85208,4.8e-4 -5.70416,9.5e-4 -8.55624,10e-4 z"
   id="path2043" /><path
   style="fill:#bc1142;fill-opacity:1;stroke:#000000;stroke-width:0.146628;stroke-opacity:1"
   d="m 337.27313,420.202 c -0.0461,8.59951 0.0521,17.20513 -0.25306,25.79982 0.10347,0.69486 -0.60678,1.25014 -1.23155,0.8904 -1.0988,-0.74523 -1.4965,-2.15506 -2.29798,-3.17052 -7.69969,-12.15049 -15.43468,-24.27703 -23.15622,-36.41377 -6.66057,-0.004 -13.32115,-0.008 -19.98173,-0.012 0,22.55821 0,45.11642 0,67.67463 4.81571,0 9.63141,0 14.44711,0 0.21108,-5.18471 0.0857,-10.40423 0.14156,-15.60295 0.0135,-10.49952 0.004,-20.99905 0.007,-31.49858 0.3715,-0.82314 1.73655,-0.62014 2.08858,0.17899 9.61284,15.66211 19.30485,31.27658 28.95952,46.91337 5.24203,0.003 10.48406,0.006 15.72609,0.009 0,-22.55821 0,-45.11642 0,-67.67463 -4.81637,0 -9.63275,0 -14.44912,0 -9e-5,4.30212 -1.9e-4,8.60425 -2.8e-4,12.90638 z"
   id="path2047" /><path
   style="fill:#bc1142;fill-opacity:1;stroke:#000000;stroke-width:0.146628;stroke-opacity:1"
   d="m 224.81007,441.13308 c 0,11.27915 0,22.55831 0,33.83746 16.1067,0 32.21339,0 48.32008,0 0,-3.78998 0,-7.57996 0,-11.36994 -10.33989,-0.0425 -20.68224,0.0924 -31.0206,-0.0882 -0.65248,0.0656 -1.45917,-0.21034 -1.35745,-1.00635 -0.2305,-5.76933 -0.11536,-11.54815 -0.19073,-17.32124 0.3846,-1.1273 1.70507,-1.06515 2.66707,-0.9979 9.18521,0.0179 18.37045,-0.003 27.55567,-0.008 0,-3.79008 0,-7.58015 0,-11.37022 -9.572,-0.0421 -19.14658,0.0918 -28.71695,-0.0879 -0.58782,0.0404 -1.36345,-0.16533 -1.30876,-0.89753 -0.17293,-3.93476 -0.12049,-7.88185 -0.0475,-11.81926 -0.0823,-0.69955 0.431,-1.34458 1.17302,-1.22629 8.94237,-0.21732 17.89093,-0.065 26.83571,-0.11226 1.47019,0 2.94038,0 4.41056,0 0,-3.78998 0,-7.57996 0,-11.36994 -16.10669,0 -32.21338,0 -48.32008,0 0,11.27915 0,22.55831 0,33.83746 z"
   id="path2049" /><path
   style="fill:#bc1142;fill-opacity:1;stroke:#000000;stroke-width:0.146628;stroke-opacity:1"
   d="m 202.5098,407.29676 c -2.17939,0.007 -4.37754,0.003 -6.5444,0.0415 -5.46735,15.92709 -10.89529,31.86897 -16.51107,47.74388 -0.11915,0.78161 -1.09012,1.37625 -1.72545,0.76235 -1.04718,-2.20447 -1.68009,-4.60593 -2.54508,-6.89235 -4.803,-13.85359 -9.55227,-27.72846 -14.34201,-41.58438 -5.55357,-0.0156 -11.10726,-0.0713 -16.66084,-0.0364 8.18019,22.51602 16.39687,45.02065 24.59677,67.52858 6.24308,0.2189 12.51408,0.0613 18.76891,0.11054 8.22376,-22.55771 16.44664,-45.11574 24.66636,-67.67492 -3.2344,5.3e-4 -6.4688,-0.001 -9.70319,10e-4 z"
   id="path2051" /><path
   style="fill:#0133ad;fill-opacity:1;stroke:#000000;stroke-width:0.146628;stroke-opacity:1"
   d="m 94.186056,406.84772 c -8.448034,22.89238 -16.922482,45.77515 -25.353967,68.67353 5.695723,0.0349 11.391546,-0.0208 17.087266,-0.0364 1.572842,-4.58003 3.123545,-9.16776 4.728739,-13.7366 0.602633,-0.59357 1.651641,-0.11251 2.430237,-0.26748 7.991779,0 15.983549,0 23.975329,0 0.76085,0.37327 0.64275,1.52719 1.04188,2.21359 1.34995,3.9536 2.69969,7.90727 4.04941,11.86094 5.84991,-0.007 11.70005,0.0225 17.54978,-0.0318 -8.45801,-22.94142 -16.91701,-45.89117 -25.4101,-68.81443 -6.68291,0 -13.36583,0 -20.048743,0 l -0.04961,0.13798 z m 10.182884,16.99476 c 3.02527,8.29004 5.78213,16.6804 8.67966,25.01747 0.007,0.87275 -1.15717,0.49025 -1.71457,0.6077 -5.23043,0.0505 -10.46776,0.14308 -15.695158,-0.0492 -0.7613,0.0352 -0.67501,-0.84497 -0.354916,-1.30051 2.805019,-8.0909 5.469444,-16.23523 8.405114,-24.27798 0.238,-0.0338 0.46373,-0.17534 0.67987,0.003 z"
   id="path2053" /><path
   style="fill:#bc1142;fill-opacity:1;stroke:#000000;stroke-width:0.146628;stroke-opacity:1"
   d="m 104.25053,407.33113 c -3.2238,0.0122 -6.447607,0.0244 -9.671409,0.0367 -8.312644,22.51645 -16.644601,45.02559 -24.919239,67.5555 5.267906,0.0775 10.562241,0.0364 15.840073,0.0473 1.580818,-4.39355 2.953324,-8.8658 4.661438,-13.21137 0.29468,-1.02151 1.491714,-0.73675 2.293536,-0.79338 8.025821,-0.0783 16.055411,-0.13972 24.080241,0.009 0.63661,-0.0443 1.33539,0.19892 1.45052,0.91041 1.63698,4.31631 3.00644,8.72959 4.53429,13.08536 5.45949,0 10.91898,0 16.37847,0 -8.30126,-22.56705 -16.64334,-45.12045 -24.97824,-67.67578 -3.22323,0.0121 -6.44645,0.0242 -9.66968,0.0364 z m -0.18816,15.90508 c 1.02801,0.1617 1.0792,1.5275 1.4952,2.27601 2.68677,7.64401 5.3852,15.28788 7.8589,23.00379 0.42314,0.68917 -0.18678,1.54421 -0.97227,1.4004 -5.43803,0.0984 -10.88351,0.22059 -16.320137,0.0477 -0.674692,0.0261 -1.723566,-0.1768 -1.597063,-1.06805 0.533819,-2.31705 1.532453,-4.50469 2.230083,-6.78021 2.164286,-6.16615 4.138407,-12.40607 6.486527,-18.50388 0.16115,-0.27952 0.51499,-0.38177 0.81876,-0.37574 z"
   id="path2055" /><path
   style="fill:#0133ad;fill-opacity:1;stroke:#000000;stroke-width:0.146628;stroke-opacity:1"
   d="m 371.03343,441.13308 c 0,11.47466 0,22.94931 0,34.42397 16.54658,0 33.09316,0 49.63973,0 0,-4.18099 0,-8.36197 0,-12.54296 -10.76595,0 -21.53191,0 -32.29787,0 -0.80997,-0.37637 -0.22072,-1.58512 -0.40007,-2.30623 0,-5.18084 0,-10.36168 0,-15.54252 0.37637,-0.80998 1.58512,-0.22072 2.30623,-0.40008 9.34856,0 18.69711,0 28.04567,0 0,-4.18098 0,-8.36197 0,-12.54295 -9.98394,0 -19.96788,0 -29.95183,0 -0.80997,-0.37638 -0.22072,-1.58513 -0.40007,-2.30624 0.0387,-3.46226 -0.0772,-6.95616 0.0576,-10.39878 0.55112,-0.58447 1.63831,-0.11393 2.39528,-0.26522 10.08169,0 20.16339,0 30.24508,0 0,-4.18099 0,-8.36198 0,-12.54296 -16.54657,0 -33.09315,0 -49.63973,0 0,11.47466 0,22.94931 0,34.42397 z"
   id="path2057" /><path
   style="fill:#bc1142;fill-opacity:1;stroke:#000000;stroke-width:0.146628;stroke-opacity:1"
   d="m 371.61994,441.13308 c 0,11.27915 0,22.55831 0,33.83746 16.15557,0 32.31114,0 48.46671,0 0,-3.78998 0,-7.57996 0,-11.36994 -10.61379,0 -21.22758,0 -31.84137,0 -1.11686,-0.5352 -0.68196,-2.03353 -0.82163,-3.02849 -0.0563,-5.18116 -0.0246,-10.36285 -0.0384,-15.54424 0.63409,-1.20412 2.25718,-0.75931 3.36012,-0.83886 8.9984,0.0149 17.99682,-0.004 26.99522,-0.01 0,-3.79008 0,-7.58015 0,-11.37022 -9.83502,0 -19.67005,0 -29.50507,0 -1.10605,-0.55194 -0.72269,-2.03241 -0.82864,-3.04166 0.0527,-3.42584 -0.0944,-6.86832 0.17683,-10.2837 0.24691,-1.03884 1.62314,-0.61724 2.38037,-0.75614 10.04019,-0.11855 20.0818,-0.037 30.12255,-0.0618 0,-3.78998 0,-7.57996 0,-11.36994 -16.15557,0 -32.31114,0 -48.46671,0 0,11.27915 0,22.55831 0,33.83746 z"
   id="path2059" /></svg>
